<svg width="138" height="28" viewBox="0 0 138 28" fill="none" xmlns="http://www.w3.org/2000/svg">
<path fill-rule="evenodd" clip-rule="evenodd" d="M37.2771 27.2628C34.7996 27.2628 32.5224 26.6872 30.4453 25.536C28.3932 24.3849 26.7541 22.7833 25.5279 20.7312C24.3267 18.6542 23.7261 16.3268 23.7261 13.7493C23.7261 11.1717 24.3267 8.85688 25.5279 6.80483C26.7541 4.75278 28.3932 3.15118 30.4453 2.00003C32.5224 0.848879 34.7996 0.273304 37.2771 0.273304C38.8843 0.273304 40.402 0.515536 41.8302 1H62.2177C63.6564 0.515536 65.1794 0.273304 66.7866 0.273304C69.2641 0.273304 71.5288 0.848879 73.5809 2.00003C75.6579 3.15118 77.2846 4.75278 78.4607 6.80483C79.6619 8.85688 80.2625 11.1717 80.2625 13.7493C80.2625 16.3268 79.6619 18.6542 78.4607 20.7312C77.2595 22.7833 75.6329 24.3849 73.5809 25.536C71.5288 26.6872 69.2641 27.2628 66.7866 27.2628C64.3091 27.2628 62.0318 26.6872 59.9548 25.536C59.1619 25.0913 58.4307 24.5793 57.7611 24H46.2594C45.5936 24.5793 44.8643 25.0913 44.0714 25.536C42.0194 26.6872 39.7546 27.2628 37.2771 27.2628ZM37.2771 21.4069C39.3792 21.4069 41.0559 20.7062 42.3071 19.3048C43.5834 17.9034 44.2216 16.0516 44.2216 13.7493C44.2216 11.4219 43.5834 9.57009 42.3071 8.19371C41.0559 6.79231 39.3792 6.09161 37.2771 6.09161C35.15 6.09161 33.4483 6.7798 32.172 8.15618C30.9208 9.53255 30.2951 11.3969 30.2951 13.7493C30.2951 16.0766 30.9208 17.941 32.172 19.3424C33.4483 20.7187 35.15 21.4069 37.2771 21.4069ZM13.7657 27L8.28527 17.0526H6.74624V27H0.327324V0.648679H11.1006C13.1777 0.648679 14.9419 1.01154 16.3934 1.73727C17.8698 2.46299 18.9709 3.46399 19.6967 4.74026C20.4224 5.99151 20.7853 7.39291 20.7853 8.94446C20.7853 10.6962 20.2848 12.2603 19.2838 13.6367C18.3078 15.013 16.8563 15.989 14.9294 16.5646L21.0105 27H13.7657ZM6.74624 12.5105H10.7252C11.9014 12.5105 12.7773 12.2227 13.3528 11.6472C13.9534 11.0716 14.2537 10.2583 14.2537 9.20723C14.2537 8.20623 13.9534 7.41794 13.3528 6.84237C12.7773 6.26679 11.9014 5.979 10.7252 5.979H6.74624V12.5105ZM71.8166 19.3048C70.5654 20.7062 68.8887 21.4069 66.7866 21.4069C64.6595 21.4069 62.9578 20.7187 61.6815 19.3424C60.4302 17.941 59.8046 16.0766 59.8046 13.7493C59.8046 11.3969 60.4302 9.53255 61.6815 8.15618C62.9578 6.7798 64.6595 6.09161 66.7866 6.09161C68.8887 6.09161 70.5654 6.79231 71.8166 8.19371C73.0929 9.57009 73.731 11.4219 73.731 13.7493C73.731 16.0516 73.0929 17.9034 71.8166 19.3048ZM113.676 0.648679V27H107.257V11.1967L101.364 27H96.1834L90.2525 11.1592V27H83.8336V0.648679H91.4162L98.8111 18.8919L106.131 0.648679H113.676ZM122.646 26.3243C124.173 26.95 125.899 27.2628 127.826 27.2628C129.803 27.2628 131.518 26.8999 132.969 26.1742C134.42 25.4485 135.522 24.4725 136.272 23.2463C137.048 22.02 137.436 20.6562 137.436 19.1547C137.436 17.5781 137.048 16.2893 136.272 15.2883C135.497 14.2873 134.571 13.524 133.495 12.9985C132.443 12.473 131.067 11.9224 129.365 11.3469C127.664 10.7963 126.412 10.2833 125.612 9.80783C124.811 9.33235 124.41 8.66919 124.41 7.81834C124.41 7.04256 124.648 6.45448 125.124 6.05408C125.599 5.62865 126.225 5.41594 127.001 5.41594C127.901 5.41594 128.64 5.66619 129.215 6.16669C129.791 6.64217 130.104 7.30533 130.154 8.15618H137.098C136.973 5.6787 136.022 3.75178 134.245 2.3754C132.468 0.974004 130.129 0.273304 127.226 0.273304C124.373 0.273304 122.058 0.974004 120.281 2.3754C118.505 3.75178 117.616 5.66619 117.616 8.11864C117.616 9.77029 118.004 11.1091 118.78 12.1352C119.556 13.1612 120.482 13.937 121.558 14.4625C122.634 14.988 124.023 15.5135 125.724 16.0391C126.9 16.3894 127.801 16.7022 128.427 16.9775C129.078 17.2528 129.616 17.6031 130.041 18.0285C130.492 18.454 130.717 18.992 130.717 19.6427C130.717 20.4184 130.441 21.0315 129.891 21.482C129.34 21.9074 128.59 22.1201 127.639 22.1201C126.713 22.1201 125.962 21.8699 125.386 21.3694C124.811 20.8439 124.473 20.0931 124.373 19.1171H117.541C117.591 20.8439 118.067 22.3203 118.968 23.5466C119.893 24.7728 121.12 25.6987 122.646 26.3243ZM72 10.5C72 11.8807 70.8807 13 69.5 13C68.1193 13 67 11.8807 67 10.5C67 9.11929 68.1193 8 69.5 8C70.8807 8 72 9.11929 72 10.5ZM64.5 20C65.8807 20 67 18.8807 67 17.5C67 16.1193 65.8807 15 64.5 15C63.1193 15 62 16.1193 62 17.5C62 18.8807 63.1193 20 64.5 20ZM37 8C38.1046 8 39 8.89543 39 10V12H41C42.1046 12 43 12.8954 43 14C43 15.1046 42.1046 16 41 16H39V18C39 19.1046 38.1046 20 37 20C35.8954 20 35 19.1046 35 18V16H33C31.8954 16 31 15.1046 31 14C31 12.8954 31.8954 12 33 12H35V10C35 8.89543 35.8954 8 37 8Z" fill="#EB922A"/>
</svg>
