<svg width="138" height="28" viewBox="0 0 138 28" fill="none" xmlns="http://www.w3.org/2000/svg">
<path fill-rule="evenodd" clip-rule="evenodd" d="M37.2771 27.2417C34.7996 27.2417 32.5224 26.6661 30.4453 25.515C28.3932 24.3638 26.7541 22.7622 25.5279 20.7102C24.3267 18.6331 23.7261 16.3058 23.7261 13.7282C23.7261 11.1506 24.3267 8.8358 25.5279 6.78375C26.7541 4.7317 28.3932 3.1301 30.4453 1.97895C32.5224 0.827803 34.7996 0.252228 37.2771 0.252228C38.8843 0.252228 40.402 0.49446 41.8302 0.978925H62.2177C63.6564 0.49446 65.1794 0.252228 66.7866 0.252228C69.2641 0.252228 71.5288 0.827803 73.5809 1.97895C75.6579 3.1301 77.2846 4.7317 78.4607 6.78375C79.6619 8.8358 80.2625 11.1506 80.2625 13.7282C80.2625 16.3058 79.6619 18.6331 78.4607 20.7102C77.2595 22.7622 75.6329 24.3638 73.5809 25.515C71.5288 26.6661 69.2641 27.2417 66.7866 27.2417C64.3091 27.2417 62.0318 26.6661 59.9548 25.515C59.1619 25.0702 58.4307 24.5582 57.7611 23.9789H46.2594C45.5936 24.5582 44.8643 25.0702 44.0714 25.515C42.0194 26.6661 39.7546 27.2417 37.2771 27.2417ZM37.2771 21.3858C39.3792 21.3858 41.0559 20.6851 42.3071 19.2837C43.5834 17.8823 44.2216 16.0305 44.2216 13.7282C44.2216 11.4009 43.5834 9.54901 42.3071 8.17264C41.0559 6.77124 39.3792 6.07054 37.2771 6.07054C35.15 6.07054 33.4483 6.75873 32.172 8.1351C30.9208 9.51148 30.2951 11.3758 30.2951 13.7282C30.2951 16.0555 30.9208 17.9199 32.172 19.3213C33.4483 20.6977 35.15 21.3858 37.2771 21.3858ZM13.7657 26.9789L8.28527 17.0315H6.74624V26.9789H0.327324V0.627602H11.1006C13.1777 0.627602 14.9419 0.990465 16.3934 1.71619C17.8698 2.44191 18.9709 3.44291 19.6967 4.71919C20.4224 5.97044 20.7853 7.37184 20.7853 8.92339C20.7853 10.6751 20.2848 12.2392 19.2838 13.6156C18.3078 14.992 16.8563 15.9679 14.9294 16.5435L21.0105 26.9789H13.7657ZM6.74624 12.4895H10.7252C11.9014 12.4895 12.7773 12.2017 13.3528 11.6261C13.9534 11.0505 14.2537 10.2372 14.2537 9.18615C14.2537 8.18515 13.9534 7.39686 13.3528 6.82129C12.7773 6.24572 11.9014 5.95793 10.7252 5.95793H6.74624V12.4895ZM71.8166 19.2837C70.5654 20.6851 68.8887 21.3858 66.7866 21.3858C64.6595 21.3858 62.9578 20.6977 61.6815 19.3213C60.4302 17.9199 59.8046 16.0555 59.8046 13.7282C59.8046 11.3758 60.4302 9.51148 61.6815 8.1351C62.9578 6.75873 64.6595 6.07054 66.7866 6.07054C68.8887 6.07054 70.5654 6.77124 71.8166 8.17264C73.0929 9.54901 73.731 11.4009 73.731 13.7282C73.731 16.0305 73.0929 17.8823 71.8166 19.2837ZM113.676 0.627602V26.9789H107.257V11.1756L101.364 26.9789H96.1834L90.2525 11.1381V26.9789H83.8336V0.627602H91.4162L98.8111 18.8708L106.131 0.627602H113.676ZM122.646 26.3032C124.173 26.9289 125.899 27.2417 127.826 27.2417C129.803 27.2417 131.518 26.8788 132.969 26.1531C134.42 25.4274 135.522 24.4514 136.272 23.2252C137.048 21.999 137.436 20.6351 137.436 19.1336C137.436 17.557 137.048 16.2682 136.272 15.2672C135.497 14.2662 134.571 13.503 133.495 12.9774C132.443 12.4519 131.067 11.9014 129.365 11.3258C127.664 10.7752 126.412 10.2622 125.612 9.78675C124.811 9.31128 124.41 8.64811 124.41 7.79726C124.41 7.02149 124.648 6.4334 125.124 6.033C125.599 5.60758 126.225 5.39486 127.001 5.39486C127.901 5.39486 128.64 5.64511 129.215 6.14561C129.791 6.62109 130.104 7.28425 130.154 8.1351H137.098C136.973 5.65763 136.022 3.7307 134.245 2.35433C132.468 0.952928 130.129 0.252228 127.226 0.252228C124.373 0.252228 122.058 0.952928 120.281 2.35433C118.505 3.7307 117.616 5.64511 117.616 8.09756C117.616 9.74921 118.004 11.0881 118.78 12.1141C119.556 13.1401 120.482 13.9159 121.558 14.4414C122.634 14.9669 124.023 15.4924 125.724 16.018C126.9 16.3683 127.801 16.6811 128.427 16.9564C129.078 17.2317 129.616 17.582 130.041 18.0075C130.492 18.4329 130.717 18.9709 130.717 19.6216C130.717 20.3974 130.441 21.0105 129.891 21.4609C129.34 21.8863 128.59 22.0991 127.639 22.0991C126.713 22.0991 125.962 21.8488 125.386 21.3483C124.811 20.8228 124.473 20.072 124.373 19.0961H117.541C117.591 20.8228 118.067 22.2992 118.968 23.5255C119.893 24.7517 121.12 25.6776 122.646 26.3032ZM72 10.4789C72 11.8596 70.8807 12.9789 69.5 12.9789C68.1193 12.9789 67 11.8596 67 10.4789C67 9.09821 68.1193 7.97892 69.5 7.97892C70.8807 7.97892 72 9.09821 72 10.4789ZM64.5 19.9789C65.8807 19.9789 67 18.8596 67 17.4789C67 16.0982 65.8807 14.9789 64.5 14.9789C63.1193 14.9789 62 16.0982 62 17.4789C62 18.8596 63.1193 19.9789 64.5 19.9789ZM37 7.97892C38.1046 7.97892 39 8.87436 39 9.97892V11.9789H41C42.1046 11.9789 43 12.8744 43 13.9789C43 15.0835 42.1046 15.9789 41 15.9789H39V17.9789C39 19.0835 38.1046 19.9789 37 19.9789C35.8954 19.9789 35 19.0835 35 17.9789V15.9789H33C31.8954 15.9789 31 15.0835 31 13.9789C31 12.8744 31.8954 11.9789 33 11.9789H35V9.97892C35 8.87436 35.8954 7.97892 37 7.97892Z" fill="#6D3C02"/>
</svg>
