<svg width="57" height="28" viewBox="0 0 57 28" fill="none" xmlns="http://www.w3.org/2000/svg">
<path fill-rule="evenodd" clip-rule="evenodd" d="M6.71921 25.5044C8.79629 26.6556 11.0736 27.2311 13.551 27.2311C16.0285 27.2311 18.2933 26.6556 20.3453 25.5044C21.1382 25.0596 21.8675 24.5476 22.5333 23.9684H34.035C34.7046 24.5476 35.4358 25.0596 36.2287 25.5044C38.3057 26.6556 40.583 27.2311 43.0605 27.2311C45.538 27.2311 47.8027 26.6556 49.8548 25.5044C51.9068 24.3533 53.5334 22.7517 54.7346 20.6996C55.9358 18.6225 56.5365 16.2952 56.5365 13.7176C56.5365 11.1401 55.9358 8.82526 54.7346 6.77321C53.5585 4.72116 51.9319 3.11956 49.8548 1.96841C47.8027 0.817259 45.538 0.241684 43.0605 0.241684C41.4533 0.241684 39.9303 0.483916 38.4916 0.968381H18.1041C16.6759 0.483916 15.1583 0.241684 13.551 0.241684C11.0736 0.241684 8.79629 0.817259 6.71921 1.96841C4.66716 3.11956 3.02802 4.72116 1.8018 6.77321C0.6006 8.82526 0 11.1401 0 13.7176C0 16.2952 0.6006 18.6225 1.8018 20.6996C3.02802 22.7517 4.66716 24.3533 6.71921 25.5044ZM18.5811 19.2732C17.3298 20.6746 15.6531 21.3753 13.551 21.3753C11.4239 21.3753 9.72221 20.6871 8.44594 19.3107C7.19469 17.9093 6.56906 16.045 6.56906 13.7176C6.56906 11.3653 7.19469 9.50093 8.44594 8.12456C9.72221 6.74818 11.4239 6.05999 13.551 6.05999C15.6531 6.05999 17.3298 6.76069 18.5811 8.16209C19.8573 9.53847 20.4955 11.3903 20.4955 13.7176C20.4955 16.0199 19.8573 17.8718 18.5811 19.2732ZM48.0905 19.2732C46.8393 20.6746 45.1626 21.3753 43.0605 21.3753C40.9334 21.3753 39.2317 20.6871 37.9554 19.3107C36.7041 17.9093 36.0785 16.045 36.0785 13.7176C36.0785 11.3653 36.7041 9.50093 37.9554 8.12456C39.2317 6.74818 40.9334 6.05999 43.0605 6.05999C45.1626 6.05999 46.8393 6.76069 48.0905 8.16209C49.3668 9.53847 50.0049 11.3903 50.0049 13.7176C50.0049 16.0199 49.3668 17.8718 48.0905 19.2732ZM48.2739 10.4684C48.2739 11.8491 47.1546 12.9684 45.7739 12.9684C44.3932 12.9684 43.2739 11.8491 43.2739 10.4684C43.2739 9.08767 44.3932 7.96838 45.7739 7.96838C47.1546 7.96838 48.2739 9.08767 48.2739 10.4684ZM40.7739 19.9684C42.1546 19.9684 43.2739 18.8491 43.2739 17.4684C43.2739 16.0877 42.1546 14.9684 40.7739 14.9684C39.3932 14.9684 38.2739 16.0877 38.2739 17.4684C38.2739 18.8491 39.3932 19.9684 40.7739 19.9684ZM13.2739 7.96838C14.3785 7.96838 15.2739 8.86381 15.2739 9.96838V11.9684H17.2739C18.3785 11.9684 19.2739 12.8638 19.2739 13.9684C19.2739 15.073 18.3785 15.9684 17.2739 15.9684H15.2739V17.9684C15.2739 19.073 14.3785 19.9684 13.2739 19.9684C12.1693 19.9684 11.2739 19.073 11.2739 17.9684V15.9684H9.27391C8.16934 15.9684 7.27391 15.073 7.27391 13.9684C7.27391 12.8638 8.16934 11.9684 9.27391 11.9684H11.2739V9.96838C11.2739 8.86381 12.1693 7.96838 13.2739 7.96838Z" fill="#6D3C02"/>
</svg>
