<svg width="57" height="28" viewBox="0 0 57 28" fill="none" xmlns="http://www.w3.org/2000/svg">
<path fill-rule="evenodd" clip-rule="evenodd" d="M6.71921 25.5255C8.79629 26.6766 11.0736 27.2522 13.551 27.2522C16.0285 27.2522 18.2933 26.6766 20.3453 25.5255C21.1382 25.0807 21.8675 24.5687 22.5333 23.9895H34.035C34.7046 24.5687 35.4358 25.0807 36.2287 25.5255C38.3057 26.6766 40.583 27.2522 43.0605 27.2522C45.538 27.2522 47.8027 26.6766 49.8548 25.5255C51.9068 24.3743 53.5334 22.7727 54.7346 20.7207C55.9358 18.6436 56.5365 16.3163 56.5365 13.7387C56.5365 11.1611 55.9358 8.84633 54.7346 6.79428C53.5585 4.74223 51.9319 3.14064 49.8548 1.98949C47.8027 0.838335 45.538 0.26276 43.0605 0.26276C41.4533 0.26276 39.9303 0.504992 38.4916 0.989457H18.1041C16.6759 0.504992 15.1583 0.26276 13.551 0.26276C11.0736 0.26276 8.79629 0.838335 6.71921 1.98949C4.66716 3.14064 3.02802 4.74223 1.8018 6.79428C0.6006 8.84633 0 11.1611 0 13.7387C0 16.3163 0.6006 18.6436 1.8018 20.7207C3.02802 22.7727 4.66716 24.3743 6.71921 25.5255ZM18.5811 19.2943C17.3298 20.6957 15.6531 21.3964 13.551 21.3964C11.4239 21.3964 9.72221 20.7082 8.44594 19.3318C7.19469 17.9304 6.56906 16.066 6.56906 13.7387C6.56906 11.3864 7.19469 9.52201 8.44594 8.14563C9.72221 6.76926 11.4239 6.08107 13.551 6.08107C15.6531 6.08107 17.3298 6.78177 18.5811 8.18317C19.8573 9.55955 20.4955 11.4114 20.4955 13.7387C20.4955 16.041 19.8573 17.8929 18.5811 19.2943ZM48.0905 19.2943C46.8393 20.6957 45.1626 21.3964 43.0605 21.3964C40.9334 21.3964 39.2317 20.7082 37.9554 19.3318C36.7041 17.9304 36.0785 16.066 36.0785 13.7387C36.0785 11.3864 36.7041 9.52201 37.9554 8.14563C39.2317 6.76926 40.9334 6.08107 43.0605 6.08107C45.1626 6.08107 46.8393 6.78177 48.0905 8.18317C49.3668 9.55955 50.0049 11.4114 50.0049 13.7387C50.0049 16.041 49.3668 17.8929 48.0905 19.2943ZM48.2739 10.4895C48.2739 11.8702 47.1546 12.9895 45.7739 12.9895C44.3932 12.9895 43.2739 11.8702 43.2739 10.4895C43.2739 9.10875 44.3932 7.98946 45.7739 7.98946C47.1546 7.98946 48.2739 9.10875 48.2739 10.4895ZM40.7739 19.9895C42.1546 19.9895 43.2739 18.8702 43.2739 17.4895C43.2739 16.1087 42.1546 14.9895 40.7739 14.9895C39.3932 14.9895 38.2739 16.1087 38.2739 17.4895C38.2739 18.8702 39.3932 19.9895 40.7739 19.9895ZM13.2739 7.98946C14.3785 7.98946 15.2739 8.88489 15.2739 9.98946V11.9895H17.2739C18.3785 11.9895 19.2739 12.8849 19.2739 13.9895C19.2739 15.094 18.3785 15.9895 17.2739 15.9895H15.2739V17.9895C15.2739 19.094 14.3785 19.9895 13.2739 19.9895C12.1693 19.9895 11.2739 19.094 11.2739 17.9895V15.9895H9.27391C8.16934 15.9895 7.27391 15.094 7.27391 13.9895C7.27391 12.8849 8.16934 11.9895 9.27391 11.9895H11.2739V9.98946C11.2739 8.88489 12.1693 7.98946 13.2739 7.98946Z" fill="#EB922A"/>
</svg>
