<svg width="57" height="57" viewBox="0 0 57 57" fill="none" xmlns="http://www.w3.org/2000/svg">
<path fill-rule="evenodd" clip-rule="evenodd" d="M6.7743 40.2627C8.86841 41.4139 11.1644 41.9895 13.6621 41.9895C16.1599 41.9895 18.4433 41.4139 20.5121 40.2627C21.3115 39.818 22.0468 39.306 22.7181 38.7267H34.3141C34.9892 39.306 35.7264 39.818 36.5257 40.2627C38.6198 41.4139 40.9158 41.9895 43.4136 41.9895C45.9113 41.9895 48.1947 41.4139 50.2635 40.2627C52.3324 39.1116 53.9724 37.51 55.1834 35.4579C56.3945 33.3809 57 31.0535 57 28.476C57 25.8984 56.3945 23.5836 55.1834 21.5315C53.9976 19.4795 52.3576 17.8779 50.2635 16.7267C48.1947 15.5756 45.9113 15 43.4136 15C41.7932 15 40.2577 15.2422 38.8072 15.7267H18.2526C16.8127 15.2422 15.2825 15 13.6621 15C11.1644 15 8.86841 15.5756 6.7743 16.7267C4.70543 17.8779 3.05285 19.4795 1.81657 21.5315C0.605524 23.5836 0 25.8984 0 28.476C0 31.0535 0.605524 33.3809 1.81657 35.4579C3.05285 37.51 4.70543 39.1116 6.7743 40.2627ZM18.7334 34.0315C17.4719 35.4329 15.7815 36.1336 13.6621 36.1336C11.5176 36.1336 9.80192 35.4454 8.51519 34.069C7.25368 32.6676 6.62292 30.8033 6.62292 28.476C6.62292 26.1236 7.25368 24.2592 8.51519 22.8829C9.80192 21.5065 11.5176 20.8183 13.6621 20.8183C15.7815 20.8183 17.4719 21.519 18.7334 22.9204C20.0201 24.2968 20.6635 26.1486 20.6635 28.476C20.6635 30.7783 20.0201 32.6301 18.7334 34.0315ZM48.4848 34.0315C47.2233 35.4329 45.5329 36.1336 43.4136 36.1336C41.269 36.1336 39.5533 35.4454 38.2666 34.069C37.0051 32.6676 36.3743 30.8033 36.3743 28.476C36.3743 26.1236 37.0051 24.2592 38.2666 22.8829C39.5533 21.5065 41.269 20.8183 43.4136 20.8183C45.5329 20.8183 47.2233 21.519 48.4848 22.9204C49.7716 24.2968 50.4149 26.1486 50.4149 28.476C50.4149 30.7783 49.7716 32.6301 48.4848 34.0315ZM48.6697 25.2267C48.6697 26.6074 47.5413 27.7267 46.1492 27.7267C44.7572 27.7267 43.6287 26.6074 43.6287 25.2267C43.6287 23.846 44.7572 22.7267 46.1492 22.7267C47.5413 22.7267 48.6697 23.846 48.6697 25.2267ZM41.1082 34.7267C42.5003 34.7267 43.6287 33.6074 43.6287 32.2267C43.6287 30.846 42.5003 29.7267 41.1082 29.7267C39.7162 29.7267 38.5877 30.846 38.5877 32.2267C38.5877 33.6074 39.7162 34.7267 41.1082 34.7267ZM13.3664 22.7267C14.4709 22.7267 15.3664 23.6221 15.3664 24.7267V26.7267H17.432C18.5365 26.7267 19.432 27.6221 19.432 28.7267C19.432 29.8313 18.5365 30.7267 17.432 30.7267H15.3664V32.7267C15.3664 33.8313 14.4709 34.7267 13.3664 34.7267C12.2618 34.7267 11.3664 33.8313 11.3664 32.7267V30.7267H9.33356C8.229 30.7267 7.33356 29.8313 7.33356 28.7267C7.33356 27.6221 8.229 26.7267 9.33356 26.7267H11.3664V24.7267C11.3664 23.6221 12.2618 22.7267 13.3664 22.7267Z" fill="#EB922A"/>
</svg>
